<svg width="440" height="244" viewBox="0 0 440 244" fill="none" xmlns="http://www.w3.org/2000/svg">
<g clip-path="url(#clip0_8181_463)">
<path d="M423.8 143.8L417.4 137.4L408.4 128.4L402 122L408.4 115.6L417.4 106.6L423.8 100.2L439.2 84.8V1C434.2 0.4 429 0 423.8 0C418.6 0 413.5 0.4 408.4 1V84.8L371.2 47.6L349.2 25.6C345.1 28.7 341.3 32.1 337.6 35.7C334 39.3 330.6 43.2 327.5 47.3L349.5 69.3L386.7 106.5H302.9C302.3 111.5 301.9 116.7 301.9 121.9C301.9 127.1 302.3 132.2 302.9 137.3H386.7L349.5 174.5L327.5 196.5C330.6 200.6 334 204.4 337.6 208.1C341.2 211.8 345.1 215.1 349.2 218.3L371.2 196.3L408.4 159.1V242.9C413.4 243.5 418.6 243.9 423.8 243.9C429 243.9 434.1 243.5 439.2 242.9V211.8V159.2L423.8 143.8Z" fill="#79FC96"/>
<path d="M272.8 143.8L266.4 137.4L257.4 128.4L251 122L257.4 115.6L266.4 106.6L272.8 100.2L288.2 84.8V1C283.2 0.4 278 0 272.8 0C267.6 0 262.5 0.4 257.4 1V84.8L220.2 47.6L198.2 25.6C194.1 28.7 190.3 32.1 186.6 35.7C183 39.3 179.6 43.2 176.5 47.3L198.5 69.3L235.7 106.5H151.9C151.3 111.5 150.9 116.7 150.9 121.9C150.9 127.1 151.3 132.2 151.9 137.3H235.7L198.5 174.5L176.5 196.5C179.6 200.6 183 204.4 186.6 208.1C190.2 211.8 194.1 215.1 198.2 218.3L220.2 196.3L257.4 159.1V242.9C262.4 243.5 267.6 243.9 272.8 243.9C278 243.9 283.1 243.5 288.2 242.9V211.8V159.2L272.8 143.8Z" fill="#79FC96"/>
<path d="M121.9 143.8L115.5 137.4L106.5 128.4L100.1 122L106.5 115.6L115.5 106.6L121.9 100.2L137.3 84.8V1C132.3 0.4 127.1 0 121.9 0C116.7 0 111.6 0.4 106.5 1V84.8L69.3 47.6L47.3 25.6C43.2 28.7 39.4 32.1 35.7 35.7C32.1 39.3 28.7 43.2 25.6 47.3L47.6 69.3L84.8 106.5H1C0.4 111.5 0 116.7 0 121.9C0 127.1 0.4 132.2 1 137.3H84.8L47.6 174.5L25.6 196.5C28.7 200.6 32.1 204.4 35.7 208.1C39.3 211.8 43.2 215.1 47.3 218.3L69.3 196.3L106.5 159.1V242.9C111.5 243.5 116.7 243.9 121.9 243.9C127.1 243.9 132.2 243.5 137.3 242.9V211.8V159.2L121.9 143.8Z" fill="#79FC96"/>
</g>
<defs>
<clipPath id="clip0_8181_463">
<rect width="439.2" height="243.9" fill="white"/>
</clipPath>
</defs>
</svg>
